<?xml version="1.0" encoding="utf-8"?>
<!-- Generator: Adobe Illustrator 26.0.0, SVG Export Plug-In . SVG Version: 6.00 Build 0)  -->
<svg version="1.1" id="Layer_1" xmlns="http://www.w3.org/2000/svg" xmlns:xlink="http://www.w3.org/1999/xlink" x="0px" y="0px"
	 viewBox="0 0 16 16" style="enable-background:new 0 0 16 16;" xml:space="preserve">
<style type="text/css">
	.st0{fill-rule:evenodd;clip-rule:evenodd;fill:#000001;}
	.st1{fill-rule:evenodd;clip-rule:evenodd;fill:#FFFFFF;}
	.st2{fill-rule:evenodd;clip-rule:evenodd;fill:#FAA819;}
</style>
<rect class="st0" width="16" height="16"/>
<g>
	<path class="st1" d="M4.46,5.75C4.48,5.56,4.53,5.34,4.61,5.1c0.08-0.25,0.23-0.48,0.43-0.7c0.2-0.22,0.47-0.41,0.8-0.56
		c0.33-0.15,0.76-0.23,1.29-0.23h4.66v1.98H7.13c-0.16,0-0.28,0.03-0.37,0.09C6.67,5.75,6.62,5.82,6.61,5.9
		c-0.02,0.08,0,0.17,0.04,0.26c0.04,0.09,0.11,0.15,0.21,0.19L6.9,6.37l-1.3,1.7C5.43,7.96,5.28,7.83,5.15,7.7
		C4.96,7.5,4.81,7.29,4.7,7.07C4.59,6.85,4.52,6.63,4.49,6.4C4.46,6.18,4.45,5.96,4.46,5.75L4.46,5.75z M10.88,8.02L9.61,9.7
		l0.07,0.03c0.1,0.05,0.17,0.12,0.21,0.21c0.04,0.09,0.05,0.17,0.03,0.25c-0.02,0.08-0.07,0.15-0.16,0.21
		c-0.09,0.06-0.21,0.09-0.36,0.09H4.71v1.98h4.66c0.53,0,0.97-0.07,1.31-0.22c0.34-0.15,0.61-0.33,0.81-0.54
		c0.2-0.22,0.34-0.45,0.42-0.69c0.08-0.25,0.12-0.47,0.13-0.66c0.02-0.21,0.01-0.43-0.02-0.65c-0.03-0.23-0.1-0.45-0.2-0.66
		c-0.1-0.22-0.25-0.42-0.44-0.62C11.25,8.26,11.08,8.13,10.88,8.02z"/>
	<path class="st2" d="M8.52,7.88L9.4,6.03H7.71L6.06,8.19h1.92L7.1,10.04H8.8l1.64-2.16H8.52L8.52,7.88z M10.76,3.18l1.49-3.11
		L9.88,3.18H10.76L10.76,3.18z M5.74,12.89L4.25,16l2.37-3.11H5.74z"/>
</g>
</svg>
